<?xml version="1.0" encoding="utf-8"?>
<!-- Designed by Vexels.com - 2017 All Rights Reserved - https://vexels.com/terms-and-conditions/  -->

<svg version="1.1" id="Layer_1" xmlns="http://www.w3.org/2000/svg" xmlns:xlink="http://www.w3.org/1999/xlink" x="0px" y="0px"
	 width="1200px" height="1200px" viewBox="0 0 1200 1200" enable-background="new 0 0 1200 1200" xml:space="preserve">
<g>
	<polygon fill="#838384" points="303.938,834.032 56.087,834.032 56.087,737.757 205.612,702.941 56.087,666.064 56.087,574.912 
		303.938,574.912 303.938,631.24 117.529,631.24 303.938,679.385 303.938,728.541 116.511,773.608 302.92,773.608 	"/>
	<path fill="#838384" d="M221.545,566.153v-68.598c0,0,40.098-1.585,38.521-40.098c0,0,0-30.076-27.439-30.076
		c0,0-18.468-1.585-26.387,29.016c0,0-12.134,63.849-41.685,87.592c0,0-42.736,32.713-86.54-3.688c0,0-32.713-25.854-27.439-82.318
		c0,0-4.748-90.754,73.872-92.34v67.539c0,0-29.542,3.162-27.439,35.884c0,0,1.06,23.741,19.536,22.691
		c0,0,14.245-1.06,18.468-22.691c0,0,13.186-60.687,26.371-77.569c0,0,17.417-34.299,65.436-32.713c0,0,60.686,0.525,78.094,64.901
		c0,0,9.505,50.656-3.688,90.229C301.225,513.911,288.556,557.708,221.545,566.153z"/>
	<path fill="#BD2223" d="M547.584,461.161c0,0,20.562-43.999,59.779-77.001c0,0,5.749-5.265-3.34-7.657
		c0,0-38.259-12.43-69.836-11.955l-180.304,4.308v463.438l182.221,6.699c0,0,89.915-5.257,140.13-52.615
		c0,0,51.672-45.907,67.928-117.651c0,0,26.719-118.965-28.244-202.41c0,0-53.997,18.654-64.799,79.519
		c0,0-10.794,86.387-9.819,103.075c0,0-3.917,69.691-61.831,97.181c0,0-80.502,8.836-129.581-2.942L448.9,462.391L547.584,461.161z"
		/>
	<path fill="#8F2877" d="M769.903,440.794c0,0,28.465-55.955,65.773-75.585c0,0-94.239-37.308-187.495,8.836
		c0,0-95.223,51.046-113.877,165.899c0,0-19.639,110.926,22.572,192.404c0,0,31.424,4.91,54.98-39.267
		c0,0,7.852-8.836,11.778-42.211c0,0,10.794-121.72,20.613-132.523C644.248,518.347,668.786,437.852,769.903,440.794z"/>
	<path fill="#8E2877" d="M658.493,829.046c0,0,49.078-40.743,68.708-75.594l37.301,1.475c0,0,5.409,35.825,77.552,83.928
		C842.053,838.856,765.485,867.322,658.493,829.046z"/>
	<path fill="#FCBF02" d="M1041.105,508.629l94.002-0.712c0,0-0.696-156.91-192.252-153.374c0,0-91.187-1.416-140.655,58.669
		c0,0-50.181,56.54-17.671,143.479c0,0,16.958,45.941,101.073,69.971c0,0,10.6-42.405,0.713-72.092c0,0-12.024-40.285-17.671-50.181
		c0,0-9.192-19.791,7.055-36.758c0,0,24.743-26.853,65.74-27.566c0,0,37.462-4.24,66.436,15.551
		C1007.875,455.616,1036.154,475.406,1041.105,508.629z"/>
	<path fill="#8F2877" d="M970.413,459.152c0,0,84.124,115.2-0.695,286.957c0,0-47.357,6.359-77.755-20.495
		c0,0-13.431-9.895-4.935-31.102c0,0,41.701-85.522-1.407-187.3c0,0-14.143-25.446,16.246-39.589
		C901.867,467.623,924.456,456.329,970.413,459.152z"/>
	<path fill="#FCC000" d="M1017.067,661.29l4.248-92.594c0,0,77.044,12.015,113.097,67.148c0,0,41.702,77.043-11.311,147.718
		c0,0-44.533,60.788-156.91,62.908c0,0-202.156,12.015-200.739-160.446l94.001,0.703c0,0,3.544,70.684,86.947,73.507
		c0,0,50.181,2.832,79.866-10.599c0,0,26.863-12.727,28.982-39.581C1055.249,710.056,1055.962,674.722,1017.067,661.29z"/>
</g>
</svg>
